<?xml version="1.0" encoding="UTF-8"?>
<svg version="1.1" xmlns="http://www.w3.org/2000/svg" width="500" height="500">
<path d="M0 0 C165 0 330 0 500 0 C500 165 500 330 500 500 C335 500 170 500 0 500 C0 335 0 170 0 0 Z " fill="#000000" transform="translate(0,0)"/>
<path d="M0 0 C1.98 0.99 1.98 0.99 4 2 C2.57513483 5.2425518 0.84867225 7.40029293 -1.65068245 9.89677811 C-2.41404478 10.66412254 -3.17740711 11.43146697 -3.96390164 12.22206426 C-4.80630268 13.05863962 -5.64870373 13.89521498 -6.51663208 14.75714111 C-7.40855534 15.65077323 -8.30047861 16.54440534 -9.21942985 17.46511722 C-11.69597309 19.94613646 -14.17871604 22.42086972 -16.662503 24.89463425 C-19.33959113 27.56309386 -22.01090565 30.23732213 -24.68292236 32.91085815 C-29.31340732 37.54239234 -33.9475431 42.17024754 -38.5841713 46.79563141 C-45.28796914 53.48318238 -51.98624438 60.17624231 -58.68318008 66.87066421 C-69.54838801 77.73149376 -80.41805574 88.58784851 -91.29052734 99.44140625 C-101.85276441 109.98528821 -112.41290104 120.53126653 -122.97021484 131.08007812 C-123.62085443 131.73019227 -124.27149402 132.38030641 -124.94184996 133.05012098 C-128.20587061 136.31153157 -131.46984995 139.57298349 -134.73380876 142.83445597 C-161.81613977 169.89605004 -188.90652452 196.94956262 -216 224 C-186.3 224.495 -186.3 224.495 -156 225 C-156 226.65 -156 228.3 -156 230 C-175.47 230.33 -194.94 230.66 -215 231 C-142.73 303.27 -70.46 375.54 4 450 C3.34 451.32 2.68 452.64 2 454 C-1.27418096 452.56457539 -3.45183657 450.80171019 -5.97765827 448.28519726 C-6.76303638 447.50750144 -7.54841448 446.72980563 -8.35759193 445.92854327 C-9.21430415 445.07009808 -10.07101637 444.21165289 -10.95368958 443.32719421 C-11.86844502 442.41838102 -12.78320046 441.50956782 -13.72567576 440.57321483 C-16.26565889 438.04936326 -18.79934143 435.51926781 -21.33200824 432.98807728 C-24.06393954 430.25984836 -26.80155241 427.5373304 -29.5383606 424.81399536 C-35.52071184 418.8588016 -41.49550562 412.8960638 -47.46869493 406.93168235 C-51.19640371 403.20949762 -54.92558504 399.48879063 -58.65503502 395.7683506 C-68.97595524 385.47181007 -79.29498486 375.1733831 -89.60710621 364.86802959 C-90.2669946 364.20858034 -90.92688299 363.54913108 -91.60676799 362.86969851 C-92.26824445 362.20865861 -92.92972091 361.5476187 -93.61124212 360.86654729 C-94.95168111 359.52699523 -96.2921232 358.18744627 -97.63256836 356.84790039 C-98.29747576 356.18343585 -98.96238316 355.51897131 -99.64743926 354.83437148 C-110.43281339 344.05690126 -121.23163548 333.29301385 -132.03630082 322.53488698 C-143.12291431 311.495643 -154.19829886 300.44523786 -165.26242083 289.38345081 C-171.47739631 283.17031163 -177.69715336 276.96212993 -183.92930031 270.76621056 C-189.2333131 265.49292169 -194.52703138 260.2095686 -199.80741761 254.91261705 C-202.50353339 252.20866145 -205.20434444 249.50986548 -207.91832161 246.82382774 C-210.85563676 243.91647746 -213.76937153 240.9866036 -216.68122864 238.05375671 C-217.54909447 237.20200369 -218.4169603 236.35025067 -219.3111251 235.47268695 C-220.08346447 234.68716789 -220.85580384 233.90164883 -221.65154743 233.09232616 C-222.32717993 232.41788784 -223.00281243 231.74344952 -223.69891864 231.04857367 C-225 229 -225 229 -224.93561196 226.50132525 C-223.84270516 223.57947785 -222.58429745 222.08718009 -220.37866116 219.88646984 C-219.5963895 219.09623399 -218.81411784 218.30599814 -218.00814098 217.49181575 C-216.70515162 216.20630343 -216.70515162 216.20630343 -215.37583923 214.89482117 C-214.46026908 213.97583331 -213.54469893 213.05684546 -212.60138422 212.11000949 C-210.05862341 209.55829519 -207.50354252 207.01923669 -204.94630468 204.48204219 C-202.19128293 201.7442756 -199.44781116 198.99497834 -196.70292664 196.24705505 C-191.94526382 191.48729366 -187.18032532 186.73491754 -182.41038322 181.987463 C-175.51384587 175.12341779 -168.62836511 168.24836906 -161.74554283 161.37057457 C-150.57864861 150.21243737 -139.40284879 139.06326419 -128.22143555 127.91967773 C-117.35900674 117.09395847 -106.50078217 106.26405085 -95.64819336 95.4284668 C-94.64495693 94.42680671 -94.64495693 94.42680671 -93.6214531 93.40491106 C-90.26622304 90.05490111 -86.91107555 86.70480847 -83.55596912 83.3546747 C-55.71677068 55.55695096 -27.86311243 27.77375224 0 0 Z " fill="#F5F5F5" transform="translate(253,23)"/>
<path d="M0 0 C1.65 0 3.3 0 5 0 C5 26.07 5 52.14 5 79 C17.54 79 30.08 79 43 79 C43 52.93 43 26.86 43 0 C44.98 0 46.96 0 49 0 C49 27.39 49 54.78 49 83 C46.19462697 83.93512434 44.51834636 84.12182907 41.62036133 84.11352539 C40.73967484 84.11344986 39.85898834 84.11337433 38.95161438 84.11329651 C38.00465195 84.10813522 37.05768951 84.10297394 36.08203125 84.09765625 C35.10965012 84.0962413 34.13726898 84.09482635 33.13542175 84.09336853 C30.02774996 84.08776817 26.92015004 84.07521562 23.8125 84.0625 C21.70638125 84.05748505 19.60026137 84.05292213 17.49414062 84.04882812 C12.32939936 84.03779862 7.16471187 84.02053375 2 84 C2 83.34 2 82.68 2 82 C1.34 82 0.68 82 0 82 C0 54.94 0 27.88 0 0 Z " fill="#E4E4E4" transform="translate(244,211)"/>
<path d="M0 0 C1.78741455 0.92214966 1.78741455 0.92214966 2.78741455 3.92214966 C2.05276978 4.55021263 2.05276978 4.55021263 1.30328369 5.19096375 C-3.58443994 9.41227584 -8.22802872 13.80291897 -12.77508545 18.38699341 C-13.37643311 18.98934814 -13.97778076 19.59170288 -14.59735107 20.21231079 C-16.80520369 22.42532586 -19.00865058 24.64273289 -21.21258545 26.85964966 C-26.16258545 31.83027466 -31.11258545 36.80089966 -36.21258545 41.92214966 C-6.51258545 42.41714966 -6.51258545 42.41714966 23.78741455 42.92214966 C23.78741455 44.57214966 23.78741455 46.22214966 23.78741455 47.92214966 C3.98741455 48.25214966 -15.81258545 48.58214966 -36.21258545 48.92214966 C-23.34258545 61.79214966 -10.47258545 74.66214966 2.78741455 87.92214966 C1.46741455 89.24214966 0.14741455 90.56214966 -1.21258545 91.92214966 C-6.96418813 86.28639654 -12.70216455 80.63726336 -18.42324829 74.97054768 C-21.08021478 72.33967521 -23.74163014 69.71365477 -26.41375732 67.09817505 C-28.99234897 64.57390949 -31.55853301 62.0376241 -34.11657715 59.49254417 C-35.09464614 58.52371395 -36.07710581 57.55929564 -37.06396484 56.59942055 C-38.44536089 55.25431396 -39.80985861 53.89191884 -41.17352295 52.52883911 C-41.95517822 51.7582869 -42.7368335 50.98773468 -43.54217529 50.1938324 C-45.21258545 47.92214966 -45.21258545 47.92214966 -45.70776367 45.41740417 C-45.04772465 42.09139896 -43.71346173 40.78867073 -41.32879639 38.39138794 C-40.48081482 37.52764557 -39.63283325 36.6639032 -38.75915527 35.77398682 C-37.83113098 34.85608368 -36.90310669 33.93818054 -35.94696045 32.99246216 C-34.9917391 32.03387218 -34.03726099 31.07454106 -33.08349609 30.11450195 C-31.08393678 28.10757716 -29.07562797 26.10995991 -27.06072998 24.11843872 C-24.4765622 21.56279713 -21.91554342 18.98530968 -19.36062241 16.40046883 C-17.39480263 14.41660014 -15.4172524 12.44477211 -13.43592072 10.4764061 C-12.02445265 9.06990164 -10.62306071 7.65330907 -9.22180176 6.2366333 C-8.36121155 5.39180389 -7.50062134 4.54697449 -6.61395264 3.67654419 C-5.8589447 2.92551422 -5.10393677 2.17448425 -4.3260498 1.4006958 C-2.21258545 -0.07785034 -2.21258545 -0.07785034 0 0 Z " fill="#F4F4F4" transform="translate(203.21258544921875,204.07785034179688)"/>
<path d="M0 0 C11.88 0 23.76 0 36 0 C36 1.65 36 3.3 36 5 C24.78 5 13.56 5 2 5 C2 31.07 2 57.14 2 84 C1.34 84 0.68 84 0 84 C0 84.99 0 85.98 0 87 C-11.55 87 -23.1 87 -35 87 C-35 85.35 -35 83.7 -35 82 C-24.44 82 -13.88 82 -3 82 C-3 55.6 -3 29.2 -3 2 C-2.01 2 -1.02 2 0 2 C0 1.34 0 0.68 0 0 Z " fill="#EFEFEF" transform="translate(339,208)"/>
<path d="M0 0 C11.55 0 23.1 0 35 0 C35 1.65 35 3.3 35 5 C24.11 5 13.22 5 2 5 C2 30.74 2 56.48 2 83 C1.34 83 0.68 83 0 83 C0 83.99 0 84.98 0 86 C-11.88 86 -23.76 86 -36 86 C-36 84.35 -36 82.7 -36 81 C-25.11 81 -14.22 81 -3 81 C-3 54.93 -3 28.86 -3 2 C-2.01 2 -1.02 2 0 2 C0 1.34 0 0.68 0 0 Z " fill="#F5F5F5" transform="translate(437,209)"/>
<path d="M0 0 C1.65 0 3.3 0 5 0 C5 26.4 5 52.8 5 80 C17.21 80 29.42 80 42 80 C42 81.65 42 83.3 42 85 C28.47 85 14.94 85 1 85 C-0.55879555 81.88240889 -0.12952133 78.57485514 -0.11352539 75.15380859 C-0.11367142 74.34397018 -0.11381744 73.53413177 -0.1139679 72.69975281 C-0.11326977 70.01595404 -0.10548204 67.33222419 -0.09765625 64.6484375 C-0.09579171 62.79041583 -0.09436798 60.93239367 -0.09336853 59.07437134 C-0.08954615 54.17857512 -0.07971823 49.28280845 -0.06866455 44.38702393 C-0.05844444 39.39343669 -0.05386962 34.39984468 -0.04882812 29.40625 C-0.03809573 19.60415366 -0.02102264 9.80207929 0 0 Z " fill="#E8E8E8" transform="translate(115,210)"/>
<path d="M0 0 C1.32 0 2.64 0 4 0 C4 27.39 4 54.78 4 83 C2.68 83 1.36 83 0 83 C0 55.61 0 28.22 0 0 Z " fill="#FEFEFE" transform="translate(386,211)"/>
</svg>
